%
M48
M72
T01C0.01200
T02C0.01300
T03C0.01500
T04C0.01969
T05C0.02200
T06C0.02362
T07C0.03200
T08C0.03937
T09C0.06299
T10C0.11024
%
T01
X78690Y61743
X87340Y62143
X90430Y70353
X90320Y81563
X73400Y95763
X58810Y95723
X79800Y117093
X76060Y139273
X79410Y139713
X77620Y142953
X92520Y157683
X98320Y155113
X102630Y150503
X103050Y144463
X98130Y143053
X99000Y137783
X107700Y132493
X124360Y132613
X128020Y143983
X131570Y142383
X135210Y143603
X136610Y139453
X143410Y141903
X147810Y140633
X151160Y137803
X153080Y143823
X149680Y145233
X145910Y147823
X143410Y150313
X143490Y154993
X142920Y162943
X143720Y166183
X138330Y169793
X136700Y174743
X133930Y172823
X141540Y175253
X141420Y182623
X147710Y190193
X141460Y191543
X154420Y184753
X160960Y186243
X171850Y192233
X179430Y184273
X184710Y189573
X185680Y181453
X192970Y185843
X203790Y178533
X215210Y174673
X217560Y182403
X205470Y158873
X198410Y156853
X189380Y148673
X183930Y152993
X179220Y158893
X172710Y162843
X169950Y167473
X166330Y168973
X168280Y172563
X176190Y172563
X185730Y164003
X175300Y147843
X169710Y148993
X166590Y147423
X168030Y139663
X162430Y133583
X167470Y129543
X169590Y123103
X170760Y116513
X168740Y109903
X164780Y110133
X161440Y109863
X168780Y104623
X168900Y99633
X163800Y98723
X160620Y99793
X158220Y93233
X164780Y91893
X164570Y88223
X162980Y84293
X158040Y83643
X152970Y83663
X148270Y77023
X145350Y80003
X142390Y82033
X147540Y83123
X141250Y74373
X143920Y71603
X143960Y67943
X142350Y64943
X140220Y61893
X136160Y61353
X137420Y55983
X146090Y53363
X139950Y44183
X149350Y32443
X168330Y39513
X162930Y62133
X163990Y70823
X163080Y75493
X155250Y70503
X154030Y61223
X127330Y67683
X117490Y57143
X120690Y55573
X117670Y53103
X110800Y56443
X108180Y54403
X107620Y57693
X104110Y57143
X98040Y55393
X98110Y51543
X108880Y51103
X107680Y26923
X139280Y97413
X142070Y99183
X140010Y106443
X136160Y107883
X131870Y99933
X128630Y98843
X122000Y100513
X118700Y100633
X114130Y100373
X112940Y106943
X108200Y105683
X105880Y110923
X105640Y115513
X114060Y115783
X136510Y127493
X139200Y125553
X146010Y126073
X148690Y132793
X134920Y149513
X129550Y154073
X134320Y158923
X129570Y163573
X125690Y170603
X114080Y177493
X110940Y174993
X106500Y178383
X108880Y182263
X102020Y180523
X98730Y181793
X93680Y181533
X91630Y178113
X84950Y186693
X95540Y204043
X105810Y200673
X110350Y207503
X107820Y217283
X107740Y223883
X128440Y202543
X142740Y205193
X163800Y201203
X167670Y201933
X169890Y209573
X165960Y210763
X165930Y222603
X170100Y222603
X171690Y227533
X102550Y165323
X102490Y161963
X100430Y168013
X59270Y166213
X56080Y164143
X57020Y160853
X56530Y156803
X55980Y152863
X56340Y148833
X34570Y142963
X15240Y147643
X9220Y141483
X14260Y135463
X8380Y131683
X13140Y125253
X9220Y119513
X12860Y113633
X5600Y108223
X9490Y99963
X13620Y99563
X15960Y95843
X9920Y95523
X9220Y153943
X13460Y161383
X8450Y173043
X18320Y174703
X149060Y109803
X149450Y103993
X179740Y115163
X179030Y125543
X182090Y132993
X188110Y136063
X194950Y139283
X189960Y126853
X197970Y103973
X182530Y101203
X214890Y89113
X218780Y85573
X217310Y79903
X217190Y96433
X222830Y129683
X221920Y135683
X181630Y66523
X202820Y54483
X219900Y49373
X221470Y56083
X220740Y42233
X224380Y38973
T02
X95440Y166423
T03
X95580Y159973
X88400Y148823
T04
X24200Y31003
X36600Y51813
X45600Y54273
X59630Y49573
X63680Y52333
X71710Y29513
X65130Y13563
X95600Y29423
X99410Y38323
X125110Y40253
X128230Y44213
X132780Y38553
X142600Y31923
X149520Y19633
X165120Y30033
X174150Y29853
X172480Y49803
X157470Y63173
X186230Y66883
X191660Y49493
X221960Y61283
X199080Y94013
X194670Y100833
X181380Y91193
X179580Y121333
X172360Y140403
X176100Y143403
X181000Y148003
X191280Y155623
X173670Y176163
X161990Y172183
X157610Y172213
X147280Y170423
X137080Y197623
X138640Y202763
X142950Y209073
X146620Y204793
X178340Y207943
X210820Y182173
X131720Y117203
X127860Y125573
X99890Y117253
X96140Y109663
X82710Y107303
X82810Y102983
X77430Y99433
X74890Y103973
X54910Y121603
X58840Y125953
X59650Y130183
X61410Y133913
X58910Y137753
X63470Y140613
X65570Y144213
X48920Y137853
X37080Y133113
X47900Y126873
X49950Y112333
X53700Y96033
X79240Y82243
X73180Y124903
X66700Y124953
X79480Y128163
X89440Y152933
X87344Y156779
X86000Y165303
X89140Y170533
X86250Y177603
X81740Y177243
X78340Y174053
X69460Y176573
X65840Y172113
X57970Y172553
X49990Y171053
X45380Y170333
X53320Y195883
X70330Y204353
X74750Y204453
X83260Y214173
X64670Y216863
X89070Y190553
X84620Y182933
X98920Y194843
X106800Y194383
X104750Y204853
T05
X110973Y200954
X120973Y200954
X110973Y190718
X42233Y200954
X32233Y200954
X32233Y190718
X32115Y122096
X42351Y122096
X42351Y112096
X110973Y111978
X110973Y122214
X120973Y122214
X189595Y122096
X189595Y112096
X199831Y112096
X199713Y43474
X189713Y43474
X189713Y33238
X120973Y43474
X110973Y43474
X110973Y33238
X42233Y43474
X32233Y43474
X32233Y33238
X189713Y190718
X189713Y200954
X199713Y200954
T06
X216200Y204723
X219500Y112523
X215700Y30523
X61050Y85423
X53860Y85523
X48130Y85523
X41920Y85523
X36180Y85323
X35800Y78723
X36090Y74153
X31810Y69683
X25990Y69683
X18900Y69483
X45700Y74443
X28100Y97123
X41700Y106623
X46300Y145923
X55950Y178503
X57700Y188523
X88770Y213323
X16700Y203523
X16700Y188323
X57600Y29823
T07
X95973Y13673
X105973Y13673
X115973Y13673
X125973Y13673
X135973Y13673
T08
X236800Y102923
X236800Y132923
T09
X199831Y122096
X199713Y190718
X120973Y190718
X42233Y190718
X32115Y112096
X42233Y33238
X120973Y33238
X199713Y33238
X120973Y111978
T10
X155343Y38356
X76603Y38356
X76603Y195836
X155343Y195836
M30
